# xmcd
#
# Track frame offsets:
#	182
#	18002
#	32475
#	56627
#	78065
#	92985
#	108450
#	122847
#	149707
#	164745
#	181400
#	196300
#	213472
#	228545
#	244182
#
# Disc length: 3481
#
# Revision: 2
# Processed by: cddbd v1.5.1PL0 Copyright (c) Steve Scherf et al.
# Submitted via: audiograbber 1.83.01
# Normalized: r1:DSETVAR1
#
DISCID=d20d970f
DTITLE=Various Artist - Soul Classics 1972 - (Volume 12)
DYEAR=2000
DGENRE=Soul
TTITLE0=Aretha Franklin - Day Dreaming
TTITLE1=The Spinners - I'll Be Around
TTITLE2=Donny Hathaway - I Love You More Than You 'll Ever Know
TTITLE3=The Staple Singers - I'll Take You There
TTITLE4=Isaac Hayes - Do Your Thing
TTITLE5=The Dramatics - In The Rain
TTITLE6=Rufus Thomas - Itch and Scratch (Part 1)
TTITLE7=Earth, Wind and Fire - I Think About Lovin' You
TTITLE8=Frederick Knight - I've Been Lonely For So Long
TTITLE9=Albert King - I'll Play The Blues For You (Part 1)
TTITLE10=Wilson Pickett - Fire And Water
TTITLE11=Mel and Tim - Starting All Over Again
TTITLE12=Major Lance - Ain't No Sweat
TTITLE13=The Soul Children - Hearsay
TTITLE14=Johnny Taylor - Doing My Own Thing (Part 1)
EXTD=
EXTT0=
EXTT1=
EXTT2=
EXTT3=
EXTT4=
EXTT5=
EXTT6=
EXTT7=
EXTT8=
EXTT9=
EXTT10=
EXTT11=
EXTT12=
EXTT13=
EXTT14=
PLAYORDER=
